<?xml version="1.0" encoding="UTF-8"?>
<!DOCTYPE svg PUBLIC "-//W3C//DTD SVG 1.1//EN" "http://www.w3.org/Graphics/SVG/1.1/DTD/svg11.dtd">
<svg xmlns="http://www.w3.org/2000/svg" version="1.1" width="1024px" height="1024px" style="shape-rendering:geometricPrecision; text-rendering:geometricPrecision; image-rendering:optimizeQuality; fill-rule:evenodd; clip-rule:evenodd" xmlns:xlink="http://www.w3.org/1999/xlink">
<g><path style="opacity:1" fill="#a9e7e2" d="M 102.5,99.5 C 153.834,99.3333 205.168,99.5 256.5,100C 266.794,102.559 273.961,108.726 278,118.5C 279.496,328.791 279.996,539.124 279.5,749.5C 491.834,749.333 704.167,749.5 916.5,750C 926.794,752.559 933.961,758.726 938,768.5C 939.649,821.455 939.982,874.455 939,927.5C 935.724,939.11 928.224,946.277 916.5,949C 645.167,949.667 373.833,949.667 102.5,949C 90.7763,946.277 83.2763,939.11 80,927.5C 79.3333,659.167 79.3333,390.833 80,122.5C 83.0151,110.319 90.5151,102.653 102.5,99.5 Z"/></g>
<g><path style="opacity:1" fill="#99f6e4" d="M 412.5,99.5 C 581.876,99.0053 751.209,99.5053 920.5,101C 930.274,105.039 936.441,112.206 939,122.5C 939.987,175.225 939.653,227.892 938,280.5C 933.961,290.274 926.794,296.441 916.5,299C 747.124,299.995 577.791,299.661 408.5,298C 398.837,294.336 392.67,287.503 390,277.5C 389.333,225.833 389.333,174.167 390,122.5C 393.015,110.319 400.515,102.653 412.5,99.5 Z"/></g>
<g><path style="opacity:1" fill="#3fb3e7" d="M 412.5,424.5 C 581.876,424.005 751.209,424.505 920.5,426C 930.274,430.039 936.441,437.206 939,447.5C 939.987,500.225 939.653,552.892 938,605.5C 933.961,615.274 926.794,621.441 916.5,624C 747.124,624.995 577.791,624.661 408.5,623C 398.837,619.336 392.67,612.503 390,602.5C 389.333,550.833 389.333,499.167 390,447.5C 393.015,435.319 400.515,427.653 412.5,424.5 Z"/></g>
</svg>
