<?xml version="1.0" encoding="UTF-8"?><!DOCTYPE svg PUBLIC "-//W3C//DTD SVG 1.1//EN" "http://www.w3.org/Graphics/SVG/1.1/DTD/svg11.dtd"><svg xmlns="http://www.w3.org/2000/svg" version="1.1" width="896px" height="896px" style="shape-rendering:geometricPrecision; text-rendering:geometricPrecision; image-rendering:optimizeQuality; fill-rule:evenodd; clip-rule:evenodd" xmlns:xlink="http://www.w3.org/1999/xlink"><g><path style="opacity:0.995" fill="#efefef" d="M 418.5,-0.5 C 437.833,-0.5 457.167,-0.5 476.5,-0.5C 614.597,11.2813 725.43,71.948 809,181.5C 860.289,252.191 889.122,331.191 895.5,418.5C 895.5,437.833 895.5,457.167 895.5,476.5C 883.719,614.597 823.052,725.43 713.5,809C 642.809,860.289 563.809,889.122 476.5,895.5C 457.167,895.5 437.833,895.5 418.5,895.5C 280.403,883.719 169.57,823.052 86,713.5C 34.7111,642.809 5.87781,563.809 -0.5,476.5C -0.5,457.167 -0.5,437.833 -0.5,418.5C 11.2813,280.403 71.948,169.57 181.5,86C 252.191,34.7111 331.191,5.87781 418.5,-0.5 Z"/></g><g><path style="opacity:1" fill="#1c1c1e" d="M 422.5,26.5 C 557.428,22.3865 670.595,69.3865 762,167.5C 786.219,195.237 806.719,225.57 823.5,258.5C 572.833,259.833 322.167,259.833 71.5,258.5C 133.961,140.051 230.628,65.5511 361.5,35C 381.919,31.7414 402.252,28.908 422.5,26.5 Z"/></g><g><path style="opacity:1" fill="#feb003" d="M 71.5,635.5 C 322.168,635.167 572.834,635.5 823.5,636.5C 772.822,734.673 695.822,803.506 592.5,843C 450.059,890.825 317.726,871.492 195.5,785C 147.693,748.202 108.859,703.702 79,651.5C 76.2152,646.265 73.7152,640.932 71.5,635.5 Z"/></g></svg>