<svg version="1.1" xmlns="http://www.w3.org/2000/svg" viewBox="0 0 320 320">
    <defs>
        <!-- 定义圆形背景的线性渐变色 -->
        <linearGradient id="bg-gradient" x1="0%" y1="0%" x2="100%" y2="100%">
            <stop offset="0%" stop-color="#826AE3"/>
            <stop offset="100%" stop-color="#7154D1"/>
        </linearGradient>
        <!-- 定义倒影的渐变蒙版，用于实现淡出效果 -->
        <!-- 渐变从 y=230 (不透明度0.2) 向上淡出到 y=120 (不透明度0)。-->
        <linearGradient id="reflection-fade-gradient" x1="0" y1="230" x2="0" y2="120" gradientUnits="userSpaceOnUse">
            <stop offset="0%" stop-color="white" stop-opacity="0.2"/> <!-- 倒影开始时约20%不透明度 -->
            <stop offset="100%" stop-color="white" stop-opacity="0"/>  <!-- 倒影完全淡出 -->
        </linearGradient>
        <!-- 定义倒影的蒙版，应用上述渐变 -->
        <mask id="reflection-mask" maskUnits="userSpaceOnUse">
            <rect x="0" y="0" width="320" height="320" fill="url(#reflection-fade-gradient)"/>
        </mask>
    </defs>
    <!-- 圆形背景，填充渐变色 -->
    <circle cx="160" cy="160" r="160" fill="url(#bg-gradient)"/>
    <!-- 前景包含三个路径，每个路径有自己的定位变换。 -->
    <g id="original-logo">
        <path d="M0 0 C10.75527871 6.2813198 18.20640121 14.77392577 22.2734375 26.59375 C22.64069003 28.25327236 22.98475197 29.91877252 23.2734375 31.59375 C23.881875 31.573125 24.4903125 31.5525 25.1171875 31.53125 C36.2931394 31.79421357 47.13600313 37.2336817 55.3359375 44.71875 C64.92429711 55.2641052 68.08174799 67.61493236 67.45263672 81.51171875 C66.41530037 93.56404077 60.16505954 103.53874973 51.60546875 111.73828125 C40.64580851 120.45827893 27.94406046 122.81570512 14.2734375 121.59375 C3.82631044 119.22124114 -5.61614272 113.46974203 -11.7265625 104.59375 C-16.49834467 96.48329516 -19.18503366 88.60124817 -17.2265625 79.19140625 C-15.04268717 71.73396832 -10.58725401 67.63891264 -4.0625 63.6640625 C0.17310482 61.72333387 4.68003104 61.15948205 9.2734375 60.59375 C-1.8881092 57.76891411 -16.62189943 57.87260903 -26.7265625 63.59375 C-38.48011464 70.7166277 -46.87511435 80.47671166 -50.34375 94 C-52.07570659 105.73488956 -50.80136193 116.8414111 -43.7265625 126.59375 C-35.50261593 136.78905422 -24.33846352 141.23292486 -11.7265625 143.59375 C-7.44533151 144.02385668 -3.21503447 144.11908946 1.0859375 144.09375 C2.22232666 144.08802979 3.35871582 144.08230957 4.52954102 144.07641602 C22.19053748 143.7023651 35.69218147 136.78178744 47.93212891 124.27685547 C52.67892636 119.28924488 56.98489152 113.97661461 61.2734375 108.59375 C81.35190482 83.87700108 81.35190482 83.87700108 93.2734375 77.59375 C94.04300781 77.18382812 94.81257812 76.77390625 95.60546875 76.3515625 C104.4433065 72.41458409 113.81391754 73.24085599 123.2734375 73.59375 C120.46279643 75.46751071 117.77460292 76.75423362 114.7109375 78.15625 C95.23369401 87.94169204 84.72953259 109.23800313 73.72070312 127.11523438 C55.74877729 156.27169624 35.1565334 175.34876942 1.625 184.83203125 C-22.19934819 190.24665584 -47.23777863 186.19879626 -67.98046875 173.44921875 C-72.45717357 170.4244182 -76.60529963 167.08097243 -80.7265625 163.59375 C-81.34015625 163.11421875 -81.95375 162.6346875 -82.5859375 162.140625 C-100.03184768 148.2159077 -110.88876367 125.53739809 -113.53173828 103.60449219 C-115.46591592 83.64222774 -112.4373791 63.33819457 -99.953125 47.13671875 C-93.36082265 39.60761553 -86.31996592 35.30626183 -76.7265625 32.59375 C-75.70949219 32.29984375 -75.70949219 32.29984375 -74.671875 32 C-72.55244331 31.55738776 -70.63909441 31.4952078 -68.4765625 31.53125 C-66.6203125 31.5621875 -66.6203125 31.5621875 -64.7265625 31.59375 C-64.66339844 30.99949219 -64.60023437 30.40523437 -64.53515625 29.79296875 C-62.96399609 19.15869527 -57.30091046 11.12110803 -49.125 4.3125 C-34.77493964 -5.97093087 -15.85054595 -8.17506668 0 0 Z " fill="#FEFEFE" transform="translate(175.7265625,53.40625)"/>
        <path d="M0 0 C-2.81064107 1.87376071 -5.49883458 3.16048362 -8.5625 4.5625 C-28.03974349 14.34794204 -38.54390491 35.64425313 -49.55273438 53.52148438 C-65.67663724 79.6798362 -84.68201023 100.08643675 -114.92578125 109.27734375 C-119.17829265 110.28026579 -122.62782027 109.50051436 -126.6875 108.0625 C-127.37811523 107.82869629 -128.06873047 107.59489258 -128.78027344 107.35400391 C-147.31729046 100.81529082 -163.2279313 87.82710735 -172 70 C-176.00520888 60.05640142 -178.1787659 50.58301254 -178.1875 39.875 C-178.19974609 39.07707031 -178.21199219 38.27914062 -178.22460938 37.45703125 C-178.24258274 30.27966646 -178.24258274 30.27966646 -176 27 C-175.67 27 -175.34 27 -175 27 C-174.91363281 27.96679688 -174.82726562 28.93359375 -174.73828125 29.9296875 C-173.443598 41.9262938 -170.65376585 50.45628067 -161.578125 58.9609375 C-150.17374133 67.98076822 -136.40326429 70.5837531 -122.1875 70.5 C-121.05111084 70.49427979 -119.91472168 70.48855957 -118.74389648 70.48266602 C-101.08290002 70.1086151 -87.58125603 63.18803744 -75.34130859 50.68310547 C-70.59451114 45.69549488 -66.28854598 40.38286461 -62 35 C-41.92153268 10.28325108 -41.92153268 10.28325108 -30 4 C-29.23042969 3.59007812 -28.46085938 3.18015625 -27.66796875 2.7578125 C-18.830131 -1.17916591 -9.45951996 -0.35289401 0 0 Z " fill="#F2EFFA" transform="translate(299,127)"/>
        <path d="M0 0 C8.70484038 9.42715693 10.5475513 18.20272441 10.38671875 30.73828125 C10.1511438 36.30509845 8.50228751 41.11877207 6.0859375 46.11328125 C7.0759375 46.60828125 7.0759375 46.60828125 8.0859375 47.11328125 C-4.61236953 51.02045264 -16.74178431 52.18063596 -28.9140625 46.11328125 C-39.37295471 40.37081986 -44.58909244 32.9269609 -49.1640625 22.17578125 C-50.96246376 14.83230943 -50.21709806 7.93245145 -46.9140625 1.11328125 C-42.39470374 -4.56819834 -35.54363875 -9.13597666 -28.3125 -10.30859375 C-16.24489314 -11.61825651 -8.59060996 -8.46788696 0 0 Z " fill="#EEEBF9" transform="translate(207.9140625,124.88671875)"/>
    </g>
    <!-- 倒影图标组 -->
    <!-- 通过transform进行垂直翻转和定位，并应用蒙版实现渐变淡出。
         使用 <use> 元素复用原始图标的几何形状和内部变换。
         组的变换 (translate(0, 315) scale(1, -0.3)) 将作用于整个 original-logo 的坐标系统，
         包括其内部路径已应用的变换，从而实现与当前代码完全一致的倒影效果。 -->
    <g id="reflection-logo" transform="translate(0, 315) scale(1, -0.3)" mask="url(#reflection-mask)">
        <use href="#original-logo"/>
    </g>
</svg>